<svg xmlns="http://www.w3.org/2000/svg" xmlns:xlink="http://www.w3.org/1999/xlink" width="70" height="70" viewBox="0 0 70 70"><defs><style>.a{fill:#d3d3d3;}.b{clip-path:url(#a);}</style><clipPath id="a"><rect class="a" width="70" height="70" transform="translate(70 43)"/></clipPath></defs><g class="b" transform="translate(-70 -43)"><g transform="translate(70 48.394)"><path class="a" d="M70,32.627a2.453,2.453,0,0,0-2.451-2.45h-4.6a2.453,2.453,0,0,0-2.45,2.45V47.572H59.437V24.829a3.927,3.927,0,0,0-2.051-3.453A36.354,36.354,0,0,0,53.6,19.613c.03-.061.059-.123.086-.185a3.921,3.921,0,0,0-.059-3.456,3.664,3.664,0,0,0-.576-.8V8.48L63.351,6.452V12.6a5.554,5.554,0,0,0-3.851.553c-2.467,1.309-3.581,4.058-2.483,6.127,1.2,2.265,4.458,2.444,6.466,1.378,2.467-1.309,3.581-4.058,2.483-6.127a3.579,3.579,0,0,0-.573-.793V6.05l.177-.035a1.02,1.02,0,0,0,.824-1V1.581A1.581,1.581,0,0,0,64.507.03L51.267,2.638a1.584,1.584,0,0,0-1.275,1.551V7.842a1.021,1.021,0,0,0,1.021,1.021h0v5.169c-.07-.017-.14-.032-.211-.045a5.6,5.6,0,0,0-3.636.607c-2.108,1.118-3.728,3.781-2.483,6.127a3.922,3.922,0,0,0,2.83,1.986,5.528,5.528,0,0,0,3.636-.607,6.013,6.013,0,0,0,1.16-.8,35.039,35.039,0,0,1,4.1,1.872,1.886,1.886,0,0,1,.984,1.659v1.159H31.722v-4.4a1.021,1.021,0,1,0-2.042,0v4.4H12.494V24.839a1.885,1.885,0,0,1,.991-1.663A46.148,46.148,0,0,1,35,18.239c1.73,0,3.462.083,5.147.248a1.021,1.021,0,1,0,.2-2.033C38.6,16.284,36.8,16.2,35,16.2a48.259,48.259,0,0,0-22.485,5.18,3.925,3.925,0,0,0-2.066,3.461V47.572H9.5V32.627a2.453,2.453,0,0,0-2.451-2.45H2.45A2.453,2.453,0,0,0,0,32.627v24.05a2.537,2.537,0,0,0,2.534,2.535H67.465A2.537,2.537,0,0,0,70,56.677ZM62.526,18.853c-1.448.769-3.145.524-3.705-.532s.189-2.6,1.636-3.366a3.764,3.764,0,0,1,1.746-.449,2.128,2.128,0,0,1,1.959.981C64.723,16.544,63.974,18.085,62.526,18.853ZM52.034,4.568,64.351,2.142V4.174L52.034,6.6ZM47.891,20.7A1.776,1.776,0,0,1,46.5,18.077a3.561,3.561,0,0,1,1.625-1.68,3.467,3.467,0,0,1,2.3-.4,1.776,1.776,0,0,1,1.391,2.622A3.781,3.781,0,0,1,47.891,20.7ZM62.546,32.627a.409.409,0,0,1,.409-.408h4.6a.409.409,0,0,1,.408.408V47.572H62.546ZM52.71,47.572V28.031H57.4V47.572ZM12.494,28.031h4.685V47.572H12.494ZM67.958,56.677a.493.493,0,0,1-.492.492H2.534a.493.493,0,0,1-.492-.492V48.593c0-.04,0-.078-.007-.116s.007-.077.007-.116V32.627a.409.409,0,0,1,.408-.408h4.6a.409.409,0,0,1,.409.408V47.572H5.837a1.021,1.021,0,0,0,0,2.042H23.41a1.021,1.021,0,0,0,0-2.042H19.22V28.031H29.68v3.282a5.553,5.553,0,0,0-3.851.553c-2.107,1.118-3.728,3.781-2.483,6.127a3.919,3.919,0,0,0,2.829,1.986,5.526,5.526,0,0,0,3.636-.607c2.467-1.309,3.581-4.058,2.483-6.127a3.6,3.6,0,0,0-.574-.793v-4.42H50.668V47.572H28.311a1.021,1.021,0,0,0,0,2.042H67.958Zm-39.1-19.11a3.562,3.562,0,0,1-2.3.4,1.777,1.777,0,0,1-1.391-2.622,3.564,3.564,0,0,1,1.625-1.68,3.761,3.761,0,0,1,1.746-.449,2.128,2.128,0,0,1,1.958.981C31.052,35.258,30.3,36.8,28.855,37.567Zm0,0"/><path class="a" d="M66.646,36.771a1.394,1.394,0,1,1-1.394-1.394A1.394,1.394,0,0,1,66.646,36.771Zm0,0"/><path class="a" d="M66.646,42.294A1.394,1.394,0,1,1,65.252,40.9,1.394,1.394,0,0,1,66.646,42.294Zm0,0"/><path class="a" d="M6.142,36.771a1.394,1.394,0,1,1-1.394-1.394A1.394,1.394,0,0,1,6.142,36.771Zm0,0"/><path class="a" d="M6.142,42.294A1.394,1.394,0,1,1,4.748,40.9,1.393,1.393,0,0,1,6.142,42.294Zm0,0"/></g></g></svg>