<svg xmlns="http://www.w3.org/2000/svg" xmlns:xlink="http://www.w3.org/1999/xlink" width="70" height="70" viewBox="0 0 70 70"><defs><style>.a{fill:#d3d3d3;}.b{clip-path:url(#a);}</style><clipPath id="a"><rect class="a" width="70" height="70" transform="translate(35 12)"/></clipPath></defs><g class="b" transform="translate(-35 -12)"><g transform="translate(32.667 9.667)"><path class="a" d="M16.355,23.333a3.5,3.5,0,0,0,3.5-3.5H17.521a1.167,1.167,0,1,1-2.333,0H12.855a3.5,3.5,0,0,0,3.5,3.5Z"/><rect class="a" width="2.333" height="2.333" transform="translate(18.688 15.167)"/><path class="a" d="M58.333,24.5a3.5,3.5,0,0,0,3.5-3.5H59.5a1.167,1.167,0,1,1-2.333,0H54.833A3.5,3.5,0,0,0,58.333,24.5Z"/><path class="a" d="M66.5,26.833H64.519a9.311,9.311,0,0,0,3.17-7V16.587a3.494,3.494,0,0,0-.022-5.193V8.167a5.84,5.84,0,0,0-5.833-5.833h-7A5.84,5.84,0,0,0,49,8.167h2.333a3.5,3.5,0,0,1,3.5-3.5h7a3.5,3.5,0,0,1,3.5,3.5V10.5h-14a3.5,3.5,0,0,0-2.311,6.125v3.208a9.312,9.312,0,0,0,3.171,7H50.167a5.85,5.85,0,0,0-1.042.1A5.792,5.792,0,0,0,45.5,25.667h-2a9.311,9.311,0,0,0,3.17-7V8.167a5.84,5.84,0,0,0-5.833-5.833H31.088a4.275,4.275,0,0,0-1.684,8.2,15.849,15.849,0,0,0,11.267.469l.81-.27,2.852,4.754v3.177a7,7,0,0,1-14,0V12.833H28v5.833a9.312,9.312,0,0,0,3.171,7h-2a5.845,5.845,0,0,0-2.333.489V12.833a10.512,10.512,0,0,0-10.5-10.5H14.818A10.152,10.152,0,0,0,4.667,12.485V24.5H7V18.53l.022,0v.14a9.312,9.312,0,0,0,3.171,7H8.167A5.831,5.831,0,0,0,2.333,31.5V35A1.167,1.167,0,0,0,3.5,36.167H6.175A6.213,6.213,0,0,0,8.167,41.38V42h-3.5V38.5H2.333v7a4.672,4.672,0,0,0,4.65,4.667l-2.3,13.808a1.167,1.167,0,0,0,1.151,1.358H8.167v7H10.5v-7h4.667v7H17.5v-7h4.667v7H24.5v-7h2.333a1.167,1.167,0,0,0,1.151-1.358l-.94-5.642H28v14h2.333V53.667h14V72.333h2.333V50.167H49V72.333h2.333v-17.5h14v17.5h2.333V50.167A4.672,4.672,0,0,0,72.333,45.5V32.667A5.84,5.84,0,0,0,66.5,26.833ZM43,8.733a1.166,1.166,0,0,0-1.369-.506l-1.7.566a13.519,13.519,0,0,1-9.61-.4,1.942,1.942,0,0,1,.765-3.726h9.746a3.5,3.5,0,0,1,3.5,3.5v2.788Zm8.98,31.13a1.165,1.165,0,0,0-.647-.195V38.5h3.5V36.167h-3.5V31.5a5.819,5.819,0,0,0-.485-2.333h3.325l2.994,4.99v6.379L54.889,41.8Zm-4.147,6.8H44.839a1.171,1.171,0,0,1-.484-.1l-4.2-1.911,3.267-1.485H49V45.5a1.168,1.168,0,0,1-1.167,1.167Zm-17.523-.1a1.159,1.159,0,0,1-.483.1H26.833A1.168,1.168,0,0,1,25.667,45.5V42.88l14.556-4.159,1.359,2.718ZM23.333,52.5H10.5V50.167H23.333ZM20.061,28l-3.646,5.833H16.25L12.605,28Zm10.082,9.333,2.044.681-.335.671-6.186,1.768v-3.12ZM38.653,28l-1.124,1.686a1.167,1.167,0,0,0-.2.645,1.167,1.167,0,0,0-.2-.645L36.013,28Zm5.87,9.333H49v3.5H43.888l-1.409-2.819Zm-7.193-6.91q0-.044,0-.088,0,.044,0,.088l.5,6.552-.508.146-.507-.145ZM24.5,23.217v2.45H22.519A9.4,9.4,0,0,0,24.5,23.217ZM22.813,28H24.5a5.826,5.826,0,0,0-1.167,3.5v2.333H19.167ZM37.334,45.933l.172.078-.173.173-.172-.172ZM59.773,29.167l-1.44,2.4-1.44-2.4ZM59.5,41.909l5.915-3.286L70,40.456V42H59.5ZM70,32.667v5.277l-2.333-.933V33.833H65.333v2.333h-3.5v1.777L59.5,39.24V34.156l2.994-4.99H66.5a3.5,3.5,0,0,1,3.5,3.5ZM51.333,12.833h14a1.167,1.167,0,1,1,0,2.333h-.746a11.736,11.736,0,0,1-2.843-.35,14.109,14.109,0,0,0-6.821,0c-.231.058-.465.109-.7.152a11.756,11.756,0,0,1-2.146.2h-.746a1.167,1.167,0,1,1,0-2.333Zm.022,7V17.5h.724a14.1,14.1,0,0,0,1.587-.094v1.26H56v-1.7a11.78,11.78,0,0,1,4.667,0v1.7H63V17.409a14.042,14.042,0,0,0,1.587.091h.768v2.333a7,7,0,1,1-14,0Zm-3.378,9.194A3.477,3.477,0,0,1,49,31.5V35H46.667V32.667H44.333V35a1.166,1.166,0,0,0-.369.06l-3.475,1.158-.358.1-.437-5.675L41.458,28H45.5a3.481,3.481,0,0,1,2.477,1.027ZM29.167,28h4.042l1.764,2.645-.437,5.675-.358-.1L30.7,35.06a1.167,1.167,0,0,0-.368-.06V32.667H28V35H25.667V31.5a3.5,3.5,0,0,1,3.5-3.5ZM7,12.485a7.818,7.818,0,0,1,7.818-7.818h1.515A8.176,8.176,0,0,1,24.5,12.833v.891l-.228.456-3.528-4.41a1.167,1.167,0,0,0-1.822,0A17.133,17.133,0,0,1,7.609,16.1L7,16.178Zm2.355,6.182v-.487a19.587,19.587,0,0,0,2.506-.679h2.161v-.89A19.443,19.443,0,0,0,19.8,12.326l3.556,4.444v1.9a7,7,0,0,1-14,0ZM7.966,32.384a6.222,6.222,0,0,0-1.077,1.45H4.667V31.5a3.5,3.5,0,0,1,3.5-3.5H9.853L13.5,33.833H9.816l.342-.342-1.65-1.65Zm2.534,8.45V36.167H23.333V42h-.446l.322-.645a1.167,1.167,0,0,0-.522-1.565l-2.333-1.167a1.167,1.167,0,0,0-1.347.219L15.85,42H10.5ZM4.667,45.5V44.333H16.333a1.167,1.167,0,0,0,.825-.342l2.905-2.905.538.269-.645,1.29A1.167,1.167,0,0,0,21,44.333h2.333v3.5H7A2.336,2.336,0,0,1,4.667,45.5ZM25.456,63H7.21l1.4-8.417a1.16,1.16,0,0,0,.72.25H22.167V56c0,.039,0,.078,0,.117v.016a2.335,2.335,0,0,0,2.33,2.2h.178ZM24.5,56V54.833a1.167,1.167,0,0,0,1.167-1.167V48.8a3.484,3.484,0,0,0,1.167.2H28v7Zm5.833-4.667V48.963a3.477,3.477,0,0,0,.943-.277l3.617-1.644,1.616,1.616a1.167,1.167,0,0,0,1.65,0l1.616-1.616,3.618,1.645a3.5,3.5,0,0,0,.941.276v2.371Zm21-1.167h5.833V52.5H51.333Zm14,2.333H59.5V50.167h5.833ZM70,45.5a2.336,2.336,0,0,1-2.333,2.333H50.439a3.485,3.485,0,0,0,.894-2.333V42.236l2.856,1.9a1.214,1.214,0,0,0,.644.194H70Z"/><path class="a" d="M58.333,57.167a1.167,1.167,0,0,0-1.163,1.07L56,72.236h4.659l-1.167-14A1.167,1.167,0,0,0,58.333,57.167Z"/><path class="a" d="M37.333,19.833a1.168,1.168,0,0,1-1.167-1.167H33.833a3.5,3.5,0,0,0,7,0H38.5a1.168,1.168,0,0,1-1.167,1.167Z"/><rect class="a" width="2.333" height="2.333" transform="translate(32.667 14)"/><rect class="a" width="2.333" height="2.333" transform="translate(39.667 14)"/><path class="a" d="M37.333,56a1.167,1.167,0,0,0-1.163,1.077L35,72.244h4.66L38.5,57.077A1.167,1.167,0,0,0,37.333,56Z"/></g></g></svg>