<svg xmlns="http://www.w3.org/2000/svg" width="14.332" height="12.93" viewBox="0 0 14.332 12.93"><defs><style>.a{fill:#fcc1ba;}</style></defs><g transform="translate(4 -4)"><path class="a" d="M3.427,6.773V4.779a.779.779,0,0,1,1.558,0V6.773a.779.779,0,0,1-1.558,0Zm6.7.779a.771.771,0,0,0,.779-.779V4.779a.779.779,0,0,0-1.558,0V6.773A.771.771,0,0,0,10.126,7.552Zm4.206-1.776V16.307a.625.625,0,0,1-.623.623H.623A.625.625,0,0,1,0,16.307V5.776A.681.681,0,0,1,.623,5.09H2.072a.623.623,0,0,1,0,1.246H1.246V8.985H13.086V6.337H12.26a.623.623,0,0,1,0-1.246h1.449A.681.681,0,0,1,14.332,5.776Zm-1.246,9.908V10.075H1.246v5.608Zm-6.9-9.347H8.147a.623.623,0,1,0,0-1.246H6.185a.623.623,0,0,0,0,1.246Z" transform="translate(-4)"/></g></svg>