<svg xmlns="http://www.w3.org/2000/svg" xmlns:xlink="http://www.w3.org/1999/xlink" width="70" height="70" viewBox="0 0 70 70"><defs><style>.a{fill:#fcc1ba;}.b{clip-path:url(#a);}</style><clipPath id="a"><rect class="a" width="70" height="70" transform="translate(0.171)"/></clipPath></defs><g class="b" transform="translate(-0.171)"><g transform="translate(0 5.832)"><path class="a" d="M47.872,51.477C29.906,61.85,9.574,60.278,2.46,47.95s1.692-30.722,19.651-41.1,38.3-8.8,45.414,3.527-1.677,30.72-19.653,41.1ZM5.388,31.81A17,17,0,0,0,6.172,45.9a16.981,16.981,0,0,0,11.807,7.728ZM43.92,4.416a45.964,45.964,0,0,0-19.662,6.253A45.846,45.846,0,0,0,8.817,24.851L25.722,54.132a45.827,45.827,0,0,0,20-6.279A45.992,45.992,0,0,0,60.967,33.946ZM64.529,26.9a17.073,17.073,0,0,0-.717-14.274A17.056,17.056,0,0,0,51.8,4.865L64.525,26.9Zm-27.6,8.3-1.741,1.007L33.1,32.6,31.134,33.74l2.08,3.6-1.743,1.007-2.078-3.6-1.966,1.136,2.08,3.6-1.743,1.007-2.089-3.6-3.718,2.147-1.073-1.859,3.727-2.147-2.173-3.763,1.743-1.007,2.175,3.763,1.975-1.14-2.183-3.765,1.743-1,2.164,3.763,1.975-1.14-2.162-3.765,1.743-1,2.175,3.763,1.975-1.14-2.173-3.765,1.743-1L37.5,27.588l1.975-1.14-2.173-3.763,1.741-1.007,2.17,3.763,1.975-1.14-2.17-3.765,1.743-1,2.173,3.763,3.883-2.239,1.073,1.859-3.883,2.241,2.076,3.6-1.741,1.007-2.076-3.6L42.3,27.3l2.08,3.6-1.743,1.007-2.08-3.6-1.966,1.136,2.08,3.6-1.743,1.007-2.089-3.6-1.966,1.136,2.076,3.6Z" transform="translate(0.006 0.002)"/></g></g></svg>